<?xml version="1.0" encoding="UTF-8" standalone="no"?>
<svg width="717.33325" height="104.62465" viewBox="0 0 189.79442 27.681938" version="1.1" id="svg5" xmlns="http://www.w3.org/2000/svg" xmlns:svg="http://www.w3.org/2000/svg">
  <g id="layer1" transform="translate(-5.427163,-52.507509)">
    <path d="M 5.427163,79.43027 H 195.22158 v 0.759177 H 5.427163 Z" style="fill:#000000;fill-opacity:1;fill-rule:nonzero;stroke:none;stroke-width:0.253059" id="path1756"/>
    <g id="g1758" transform="matrix(0.08466666,0,0,0.08466666,-4.8033915,39.591787)">
      <g id="g1760" clip-path="url(#clipPath1764)">
        <g id="g1766" transform="matrix(2.9888887,0,0,2.9888887,120.83333,120.83333)">
          <text transform="translate(0.015625,137)" style="font-variant:normal;font-weight:normal;font-size:143px;font-family:Arial;writing-mode:lr-tb;fill:#000000;fill-opacity:1;fill-rule:nonzero;stroke:none" id="text1770"><tspan x="0 95.379883 190.75977 301.98975" y="0" id="tspan1768">BSON</tspan></text>
          <text transform="translate(579.96875,92)" style="font-variant:normal;font-weight:normal;font-size:104px;font-family:Verdana;writing-mode:lr-tb;fill:#000000;fill-opacity:1;fill-rule:nonzero;stroke:none" id="text1774"><tspan x="0" y="0" id="tspan1772">}</tspan></text>
          <text transform="translate(482.75,27)" style="font-variant:normal;font-weight:normal;font-size:22.1px;font-family:monospace;writing-mode:lr-tb;fill:#000000;fill-opacity:1;fill-rule:nonzero;stroke:none" id="text1778"><tspan x="0 12.150681 24.301361 36.452042 48.602722 60.753403 72.904083 85.054764" y="0" id="tspan1776">01000010</tspan></text>
          <text transform="translate(482.75,54)" style="font-variant:normal;font-weight:normal;font-size:22.1px;font-family:monospace;writing-mode:lr-tb;fill:#000000;fill-opacity:1;fill-rule:nonzero;stroke:none" id="text1782"><tspan x="0 12.150681 24.301361 36.452042 48.602722 60.753403 72.904083 85.054764" y="0" id="tspan1780">01010011</tspan></text>
          <text transform="translate(482.75,81)" style="font-variant:normal;font-weight:normal;font-size:22.1px;font-family:monospace;writing-mode:lr-tb;fill:#000000;fill-opacity:1;fill-rule:nonzero;stroke:none" id="text1786"><tspan x="0 12.150681 24.301361 36.452042 48.602722 60.753403 72.904083 85.054764" y="0" id="tspan1784">01001111</tspan></text>
          <text transform="translate(482.75,108)" style="font-variant:normal;font-weight:normal;font-size:22.1px;font-family:monospace;writing-mode:lr-tb;fill:#000000;fill-opacity:1;fill-rule:nonzero;stroke:none" id="text1790"><tspan x="0 12.150681 24.301361 36.452042 48.602722 60.753403 72.904083 85.054764" y="0" id="tspan1788">01001110</tspan></text>
          <text transform="translate(416.73438,92)" style="font-variant:normal;font-weight:normal;font-size:104px;font-family:Verdana;writing-mode:lr-tb;fill:#000000;fill-opacity:1;fill-rule:nonzero;stroke:none" id="text1794"><tspan x="0" y="0" id="tspan1792">{</tspan></text>
        </g>
      </g>
    </g>
  </g>
</svg>